<?xml version="1.0" encoding="utf-8"?>
<!-- Generator: Adobe Illustrator 17.0.0, SVG Export Plug-In . SVG Version: 6.00 Build 0)  -->
<!DOCTYPE svg PUBLIC "-//W3C//DTD SVG 1.1//EN" "http://www.w3.org/Graphics/SVG/1.1/DTD/svg11.dtd">
<svg version="1.1" id="图层_1" xmlns="http://www.w3.org/2000/svg" xmlns:xlink="http://www.w3.org/1999/xlink" x="0px" y="0px"
	 width="40px" height="40px" viewBox="668.735 147.027 40 40" enable-background="new 668.735 147.027 40 40" xml:space="preserve">
<path opacity="0.5" fill="#E6E6E6" enable-background="new    " d="M688.735,147.027c-11.046,0-20,8.954-20,20s8.954,20,20,20
	s20-8.954,20-20S699.781,147.027,688.735,147.027z M688.735,182.527c-8.56,0-15.5-6.94-15.5-15.5s6.94-15.5,15.5-15.5
	s15.5,6.94,15.5,15.5C704.235,175.588,697.296,182.527,688.735,182.527z"/>
<path fill="#DC2121" d="M688.805,147.027c-0.024,0-0.046,0.006-0.07,0.007v-0.007c-5.523,0-10.523,2.239-14.142,5.858l0.006,0.006
	c-0.45,0.412-0.737,0.999-0.737,1.658c0,1.246,1.01,2.256,2.256,2.256c0.66,0,1.249-0.289,1.662-0.741
	c2.798-2.796,6.66-4.526,10.926-4.534c0.034,0.002,0.066,0.01,0.1,0.01c1.246,0,2.256-1.01,2.256-2.256
	S690.051,147.027,688.805,147.027z"/>
<rect id="_x3C_切片_x3E_" x="668.735" y="147.027" fill="none" width="40" height="40"/>
</svg>
